<svg id="visual" viewBox="0 0 900 600" width="900" height="600" xmlns="http://www.w3.org/2000/svg" xmlns:xlink="http://www.w3.org/1999/xlink" version="1.1"><path d="M0 310L30 312.8C60 315.7 120 321.3 180 311.7C240 302 300 277 360 257.5C420 238 480 224 540 234.8C600 245.7 660 281.3 720 301.3C780 321.3 840 325.7 870 327.8L900 330L900 0L870 0C840 0 780 0 720 0C660 0 600 0 540 0C480 0 420 0 360 0C300 0 240 0 180 0C120 0 60 0 30 0L0 0Z" fill="#333" stroke-linecap="round" stroke-linejoin="miter"></path></svg>