<svg xmlns="http://www.w3.org/2000/svg" x="391.8784" y="303.8132" width="39.3482" height="39.9736" viewBox="21.25198745727539 19.999967575073242 157.49708557128906 160.00003051757812" preserveAspectRatio="none"><g transform="matrix(1 0 0 1 0 0)"><g><path d="M36.196 133.424c-3.005 0-5.833-1.14-7.955-3.21-2.105-2.05-3.313-4.891-3.313-7.793v-3.279c0-2.903 1.208-5.742 3.313-7.792 2.125-2.07 4.95-3.212 7.955-3.212 3.003 0 5.828 1.141 7.953 3.213 2.105 2.049 3.313 4.889 3.313 7.791v3.279c0 2.903-1.208 5.744-3.313 7.793-2.123 2.07-4.948 3.21-7.953 3.21zm0-22.951c-2.358 0-4.665.929-6.327 2.549-1.68 1.637-2.606 3.81-2.606 6.12v3.279c0 2.31.926 4.483 2.606 6.12 1.662 1.621 3.967 2.549 6.327 2.549 2.358 0 4.663-.928 6.325-2.549 1.68-1.637 2.606-3.81 2.606-6.12v-3.279c0-2.31-.926-4.483-2.606-6.119-1.663-1.621-3.968-2.55-6.325-2.55z" data-color="1" class="backgroundbf2f5dbd-e946-443a-a05a-9de202b3d441"/><path d="M23.587 180h-2.335v-23.779c0-3.033 1.177-5.885 3.313-8.028a11.207 11.207 0 0 1 8.003-3.329h4.544c3.924 0 7.616 1.535 10.393 4.323l12.609 12.661h26.572v2.335H59.143l-13.293-13.35a12.252 12.252 0 0 0-8.737-3.634h-4.544a8.894 8.894 0 0 0-6.348 2.64 9.104 9.104 0 0 0-2.634 6.382V180z" data-color="1" class="backgroundbf2f5dbd-e946-443a-a05a-9de202b3d441"/><path d="M157.381 175.162v2.335H42.616v-2.335h114.765z" data-color="1" class="backgroundbf2f5dbd-e946-443a-a05a-9de202b3d441"/><path d="M164.73 133.424c-3.005 0-5.833-1.14-7.955-3.21-2.105-2.05-3.313-4.891-3.313-7.793v-3.279c0-2.903 1.208-5.742 3.313-7.792 2.125-2.07 4.95-3.212 7.955-3.212 3.003 0 5.828 1.141 7.953 3.213 2.105 2.049 3.313 4.889 3.313 7.791v3.279c0 2.903-1.208 5.744-3.313 7.793-2.123 2.07-4.948 3.21-7.953 3.21zm0-22.951c-2.358 0-4.665.929-6.327 2.549-1.68 1.637-2.606 3.81-2.606 6.12v3.279c0 2.31.926 4.483 2.606 6.12 1.662 1.621 3.967 2.549 6.327 2.549 2.358 0 4.663-.928 6.325-2.549 1.68-1.637 2.606-3.81 2.606-6.12v-3.279c0-2.31-.926-4.483-2.606-6.119-1.662-1.621-3.967-2.55-6.325-2.55z" data-color="1" class="backgroundbf2f5dbd-e946-443a-a05a-9de202b3d441"/><path d="M178.748 180h-2.335v-23.779c0-2.412-.935-4.679-2.631-6.382s-3.951-2.64-6.348-2.64h-4.544a12.254 12.254 0 0 0-8.737 3.634l-13.293 13.35h-27.546v-2.335h26.575l12.609-12.661a14.57 14.57 0 0 1 10.393-4.323h4.544a11.22 11.22 0 0 1 8.003 3.329 11.302 11.302 0 0 1 3.311 8.028V180z" data-color="1" class="backgroundbf2f5dbd-e946-443a-a05a-9de202b3d441"/><path d="M66.489 93.507 52.448 79.564H29.2a7.926 7.926 0 0 1-5.618-2.311 7.836 7.836 0 0 1-2.33-5.59V27.901c0-2.109.828-4.094 2.33-5.589A7.927 7.927 0 0 1 29.2 20h74.578c2.121 0 4.116.821 5.618 2.311a7.836 7.836 0 0 1 2.33 5.59v43.763a7.836 7.836 0 0 1-2.33 5.589 7.927 7.927 0 0 1-5.618 2.312H80.53L66.489 93.507zM29.2 22.335c-1.5 0-2.912.58-3.972 1.634a5.512 5.512 0 0 0-1.642 3.932v43.763c0 1.483.584 2.88 1.642 3.933A5.605 5.605 0 0 0 29.2 77.23h24.21l13.079 12.988L79.568 77.23h24.21c1.5 0 2.912-.58 3.972-1.634a5.512 5.512 0 0 0 1.642-3.932V27.901c0-1.483-.584-2.88-1.642-3.933a5.605 5.605 0 0 0-3.972-1.633H29.2z" data-color="1" class="backgroundbf2f5dbd-e946-443a-a05a-9de202b3d441"/><path d="m133.969 107.29-13.904-13.952H97.068a7.824 7.824 0 0 1-5.573-2.315 7.86 7.86 0 0 1-2.305-5.585v-6.733h2.335v6.733c0 1.487.577 2.885 1.626 3.937a5.495 5.495 0 0 0 3.917 1.629h23.969l12.933 12.978 12.933-12.978h23.966c1.48 0 2.871-.579 3.917-1.629a5.537 5.537 0 0 0 1.626-3.937V41.674a5.539 5.539 0 0 0-1.626-3.937 5.49 5.49 0 0 0-3.917-1.629h-60.382v-2.335h60.382c2.105 0 4.084.822 5.573 2.315a7.86 7.86 0 0 1 2.305 5.585v43.763a7.864 7.864 0 0 1-2.305 5.585 7.822 7.822 0 0 1-5.573 2.315h-22.995l-13.905 13.954z" data-color="1" class="backgroundbf2f5dbd-e946-443a-a05a-9de202b3d441"/></g></g></svg>