<svg xmlns="http://www.w3.org/2000/svg" x="396.9544" y="291.2397" width="352.0912" height="65.1206" viewBox="1.96 -32.8 179.72 33.24" preserveAspectRatio="none"><g transform="matrix(1 0 0 1 0 0)" class="companyName"><path fill='#1b254b' id="id-D6z1nYkh9" d="M11.44 0.44Q6.28 0.44 4.12-2.34Q1.96-5.12 1.96-10.36L1.96-10.36L1.96-21.96Q1.96-27.32 4.10-30.06Q6.24-32.80 11.44-32.80L11.44-32.80Q16.40-32.80 18.46-30.38Q20.52-27.96 20.52-23.44L20.52-23.44L20.52-20.72L14.12-20.72L14.12-23.72Q14.12-25.16 13.98-26.04Q13.84-26.92 13.26-27.50Q12.68-28.08 11.48-28.08L11.48-28.08Q9.68-28.08 9.16-26.92Q8.64-25.76 8.64-23.52L8.64-23.52L8.64-8.80Q8.64-6.52 9.24-5.40Q9.84-4.28 11.48-4.28L11.48-4.28Q13.16-4.28 13.64-5.42Q14.12-6.56 14.12-8.80L14.12-8.80L14.12-11.96L20.52-11.96L20.52-9.28Q20.52-4.64 18.48-2.10Q16.44 0.44 11.44 0.44L11.44 0.44Z M33.64 0.44Q28.48 0.44 26.28-2.26Q24.08-4.96 24.08-10.20L24.08-10.20L24.08-22.28Q24.08-27.52 26.28-30.16Q28.48-32.80 33.64-32.80L33.64-32.80Q38.76-32.80 40.98-30.14Q43.20-27.48 43.20-22.28L43.20-22.28L43.20-10.16Q43.20-4.96 40.98-2.26Q38.76 0.44 33.64 0.44L33.64 0.44ZM33.64-4.28Q35.32-4.28 35.90-5.42Q36.48-6.56 36.48-8.56L36.48-8.56L36.48-23.88Q36.48-25.88 35.90-26.98Q35.32-28.08 33.64-28.08L33.64-28.08Q31.96-28.08 31.38-26.98Q30.80-25.88 30.80-23.88L30.80-23.88L30.80-8.56Q30.80-6.52 31.36-5.40Q31.92-4.28 33.64-4.28L33.64-4.28Z M47.60 0L47.60-32.40L52.20-32.40L59.40-15.56L59.40-32.40L64.88-32.40L64.88 0L60.44 0L53.24-17.92L53.24 0L47.60 0Z M69.76 0L69.76-32.40L74.36-32.40L81.56-15.56L81.56-32.40L87.04-32.40L87.04 0L82.60 0L75.40-17.92L75.40 0L69.76 0Z M91.92 0L91.92-32.40L106.04-32.40L106.04-27.84L98.48-27.84L98.48-19.24L104.32-19.24L104.32-14.64L98.48-14.64L98.48-4.48L106.12-4.48L106.12 0L91.92 0Z M107.36 0L113.76-17.36L107.60-32.40L113.84-32.40L117.68-23.04L120.88-32.40L126.48-32.40L120.60-15.80L127.04 0L120.88 0L116.64-10.24L112.92 0L107.36 0Z M129.88 0L129.88-32.40L136.44-32.40L136.44 0L129.88 0Z M150.44 0.44Q145.28 0.44 143.08-2.26Q140.88-4.96 140.88-10.20L140.88-10.20L140.88-22.28Q140.88-27.52 143.08-30.16Q145.28-32.80 150.44-32.80L150.44-32.80Q155.56-32.80 157.78-30.14Q160-27.48 160-22.28L160-22.28L160-10.16Q160-4.96 157.78-2.26Q155.56 0.44 150.44 0.44L150.44 0.44ZM150.44-4.28Q152.12-4.28 152.70-5.42Q153.28-6.56 153.28-8.56L153.28-8.56L153.28-23.88Q153.28-25.88 152.70-26.98Q152.12-28.08 150.44-28.08L150.44-28.08Q148.76-28.08 148.18-26.98Q147.60-25.88 147.60-23.88L147.60-23.88L147.60-8.56Q147.60-6.52 148.16-5.40Q148.72-4.28 150.44-4.28L150.44-4.28Z M164.40 0L164.40-32.40L169.00-32.40L176.20-15.56L176.20-32.40L181.68-32.40L181.68 0L177.24 0L170.04-17.92L170.04 0L164.40 0Z"/></g></svg>